<svg width="1024" height="1024" viewBox="0 0 1024 1024" fill="none" xmlns="http://www.w3.org/2000/svg">
<path d="M275.149 733.44L361.165 303.36H589.107C640.307 303.36 678.81 312.371 704.614 330.394C730.419 348.006 743.322 373.197 743.322 405.965C743.322 432.589 735.539 455.117 719.974 473.549C704.819 491.981 683.725 506.112 656.691 515.942C630.067 525.363 599.347 530.074 564.531 530.074L582.963 496.896C626.791 496.896 661.197 505.702 686.183 523.315C711.578 540.518 724.275 564.89 724.275 596.429C724.275 627.968 715.059 653.978 696.627 674.458C678.605 694.528 654.439 709.478 624.128 719.309C593.818 728.73 560.231 733.44 523.367 733.44H275.149ZM437.965 632.064H531.354C545.69 632.064 557.363 628.787 566.375 622.234C575.795 615.68 580.506 605.85 580.506 592.742C580.506 583.322 576.819 576.358 569.447 571.853C562.483 566.938 554.291 564.48 544.871 564.48H441.651L460.698 468.634H544.256C555.315 468.634 564.327 467.2 571.29 464.333C578.663 461.056 583.987 456.755 587.264 451.43C590.541 445.696 592.179 438.938 592.179 431.155C592.179 422.144 588.698 415.59 581.735 411.494C575.181 406.989 565.965 404.736 554.087 404.736H483.431L437.965 632.064Z" fill="white"/>
</svg>
