<svg width="469" height="431" viewBox="0 0 469 431" fill="none" xmlns="http://www.w3.org/2000/svg">
<path d="M0 430.08L86.016 0H313.958C365.158 0 403.661 9.01119 429.466 27.0336C455.27 44.6464 468.173 69.8368 468.173 102.605C468.173 129.229 460.39 151.757 444.826 170.189C429.67 188.621 408.576 202.752 381.542 212.582C354.918 222.003 324.198 226.714 289.382 226.714L307.814 193.536C351.642 193.536 386.048 202.342 411.034 219.955C436.429 237.158 449.126 261.53 449.126 293.069C449.126 324.608 439.91 350.618 421.478 371.098C403.456 391.168 379.29 406.118 348.979 415.949C318.669 425.37 285.082 430.08 248.218 430.08H0ZM162.816 328.704H256.205C270.541 328.704 282.214 325.427 291.226 318.874C300.646 312.32 305.357 302.49 305.357 289.382C305.357 279.962 301.67 272.998 294.298 268.493C287.334 263.578 279.142 261.12 269.722 261.12H166.502L185.549 165.274H269.107C280.166 165.274 289.178 163.84 296.141 160.973C303.514 157.696 308.838 153.395 312.115 148.07C315.392 142.336 317.03 135.578 317.03 127.795C317.03 118.784 313.549 112.23 306.586 108.134C300.032 103.629 290.816 101.376 278.938 101.376H208.282L162.816 328.704Z" fill="white"/>
</svg>
