<svg width="512" height="512" viewBox="0 0 512 512" fill="none" xmlns="http://www.w3.org/2000/svg">
<mask id="mask0_574_360" style="mask-type:luminance" maskUnits="userSpaceOnUse" x="0" y="0" width="512" height="512">
<path d="M512 0H0V512H512V0Z" fill="white"/>
</mask>
<g mask="url(#mask0_574_360)">
<path d="M512 0H0V512H512V0Z" fill="white"/>
<path d="M516.267 -11.3778H-18.4888V523.378H516.267V-11.3778Z" fill="url(#paint0_linear_574_360)"/>
<path d="M333.943 332.636L325.182 319.989C322.797 316.545 318.072 315.687 314.628 318.072L284.336 339.054C280.892 341.439 280.034 346.165 282.42 349.608L291.18 362.256C293.565 365.7 298.291 366.558 301.734 364.172L332.026 343.19C335.47 340.805 336.328 336.08 333.943 332.636Z" fill="white"/>
<path d="M312.474 301.41L180.488 110.86C178.103 107.416 173.378 106.558 169.934 108.944L139.642 129.926C136.198 132.311 135.34 137.036 137.726 140.48L269.711 331.03C272.097 334.473 276.822 335.331 280.266 332.946L310.558 311.964C314.001 309.579 314.859 304.853 312.474 301.41Z" fill="white"/>
<path d="M343.067 392.641L302.334 373.396L339.367 347.744L343.067 392.641Z" fill="white"/>
<path d="M343.043 396.451C345.342 396.451 347.205 394.588 347.205 392.29C347.205 389.991 345.342 388.128 343.043 388.128C340.745 388.128 338.882 389.991 338.882 392.29C338.882 394.588 340.745 396.451 343.043 396.451Z" fill="white"/>
<path d="M-0.027832 392.77H340.413" stroke="white" stroke-width="8"/>
</g>
<defs>
<linearGradient id="paint0_linear_574_360" x1="-18.4888" y1="-11.3778" x2="516.267" y2="523.378" gradientUnits="userSpaceOnUse">
<stop stop-color="#226CE0"/>
<stop offset="1" stop-color="#003268"/>
</linearGradient>
</defs>
</svg>
