<svg width="120" height="80" viewBox="0 0 120 80" fill="none" xmlns="http://www.w3.org/2000/svg">
<path d="M0.08 39L5.68 11H13.36L20.84 29.28H16.76L31.16 11H39.2L33.68 39H25.08L28 23.96L29.36 23.88L19.68 36.48H15.52L10.08 23.84L11.68 23.96L8.68 39H0.08ZM45.4441 39L47.8841 26.72L48.9241 32.36L40.4841 11H49.9641L55.7241 25.68H49.7641L61.5641 11H71.0441L54.1241 32.36L57.3241 26.72L54.8841 39H45.4441Z" fill="#008DD5"/>
<path d="M0.08 70L5.68 42H20.52C23.8533 42 26.36 42.5867 28.04 43.76C29.72 44.9067 30.56 46.5467 30.56 48.68C30.56 50.4133 30.0533 51.88 29.04 53.08C28.0533 54.28 26.68 55.2 24.92 55.84C23.1867 56.4533 21.1867 56.76 18.92 56.76L20.12 54.6C22.9733 54.6 25.2133 55.1733 26.84 56.32C28.4933 57.44 29.32 59.0267 29.32 61.08C29.32 63.1333 28.72 64.8267 27.52 66.16C26.3467 67.4667 24.7733 68.44 22.8 69.08C20.8267 69.6933 18.64 70 16.24 70H0.08ZM10.68 63.4H16.76C17.6933 63.4 18.4533 63.1867 19.04 62.76C19.6533 62.3333 19.96 61.6933 19.96 60.84C19.96 60.2267 19.72 59.7733 19.24 59.48C18.7867 59.16 18.2533 59 17.64 59H10.92L12.16 52.76H17.6C18.32 52.76 18.9067 52.6667 19.36 52.48C19.84 52.2667 20.1867 51.9867 20.4 51.64C20.6133 51.2667 20.72 50.8267 20.72 50.32C20.72 49.7333 20.4933 49.3067 20.04 49.04C19.6133 48.7467 19.0133 48.6 18.24 48.6H13.64L10.68 63.4ZM45.1375 70.64C42.2308 70.64 39.8042 70.0933 37.8575 69C35.9108 67.88 34.5242 66.3333 33.6975 64.36C32.8975 62.36 32.7642 60.04 33.2975 57.4L36.3775 42H45.8175L42.7775 57.24C42.5908 58.2267 42.5242 59.08 42.5775 59.8C42.6308 60.52 42.8042 61.12 43.0975 61.6C43.4175 62.08 43.8442 62.44 44.3775 62.68C44.9108 62.8933 45.5508 63 46.2975 63C47.2042 63 47.9775 62.8133 48.6175 62.44C49.2842 62.0667 49.8308 61.4533 50.2575 60.6C50.7108 59.7467 51.0708 58.6267 51.3375 57.24L54.3775 42H63.6575L60.4975 57.8C59.6708 61.9867 57.9775 65.1733 55.4175 67.36C52.8575 69.5467 49.4308 70.64 45.1375 70.64ZM70.1447 70.64C67.798 70.64 65.7714 70.28 64.0647 69.56C62.3847 68.84 61.0247 67.76 59.9847 66.32L66.0247 60.6C66.638 61.48 67.2914 62.1467 67.9847 62.6C68.7047 63.0267 69.478 63.24 70.3047 63.24C71.2114 63.24 71.9447 62.9733 72.5047 62.44C73.0914 61.9067 73.478 61.1467 73.6647 60.16L75.8647 49.12H66.3447L67.7847 42H86.6247L83.1047 59.6C82.5714 62.2933 81.7447 64.4533 80.6247 66.08C79.5047 67.68 78.0647 68.84 76.3047 69.56C74.5714 70.28 72.518 70.64 70.1447 70.64ZM101.113 70.64C98.2068 70.64 95.6868 70.1067 93.5534 69.04C91.4468 67.9733 89.8068 66.5067 88.6334 64.64C87.4868 62.7467 86.9134 60.5733 86.9134 58.12C86.9134 55.64 87.3401 53.3867 88.1934 51.36C89.0734 49.3067 90.3001 47.5333 91.8734 46.04C93.4468 44.5467 95.3134 43.4 97.4734 42.6C99.6334 41.7733 101.993 41.36 104.553 41.36C107.46 41.36 109.967 41.8933 112.073 42.96C114.207 44.0267 115.847 45.5067 116.993 47.4C118.167 49.2667 118.753 51.4267 118.753 53.88C118.753 56.36 118.313 58.6267 117.433 60.68C116.58 62.7067 115.367 64.4667 113.793 65.96C112.22 67.4533 110.353 68.6133 108.193 69.44C106.033 70.24 103.673 70.64 101.113 70.64ZM101.913 63C103.087 63 104.113 62.7733 104.993 62.32C105.9 61.8667 106.673 61.24 107.313 60.44C107.953 59.64 108.433 58.7333 108.753 57.72C109.073 56.68 109.233 55.5867 109.233 54.44C109.233 53.3467 109.007 52.4 108.553 51.6C108.127 50.7733 107.5 50.1333 106.673 49.68C105.873 49.2267 104.9 49 103.753 49C102.607 49 101.58 49.2267 100.673 49.68C99.7668 50.1333 98.9934 50.76 98.3534 51.56C97.7134 52.36 97.2334 53.28 96.9134 54.32C96.5934 55.3333 96.4334 56.4133 96.4334 57.56C96.4334 58.6267 96.6468 59.5733 97.0734 60.4C97.5268 61.2267 98.1534 61.8667 98.9534 62.32C99.7801 62.7733 100.767 63 101.913 63Z" fill="#FE9000"/>
</svg>
