<svg width="606" height="84" viewBox="0 0 606 84" fill="none" xmlns="http://www.w3.org/2000/svg">
<path d="M597.529 63.1677L595.106 59.669C594.446 58.7163 593.139 58.4789 592.186 59.1388L583.806 64.9432C582.853 65.6031 582.616 66.9103 583.276 67.863L585.699 71.3618C586.359 72.3145 587.667 72.5518 588.619 71.8919L596.999 66.0875C597.952 65.4276 598.189 64.1204 597.529 63.1677Z" fill="white"/>
<path d="M591.59 54.5292L555.078 1.81579C554.418 0.863117 553.111 0.625758 552.158 1.28564L543.778 7.09005C542.825 7.74993 542.588 9.05716 543.248 10.0098L579.76 62.7233C580.42 63.676 581.727 63.9133 582.68 63.2535L591.06 57.449C592.013 56.7892 592.25 55.4819 591.59 54.5292Z" fill="white"/>
<path d="M600.053 79.7676L588.785 74.4435L599.03 67.3471L600.053 79.7676Z" fill="white"/>
<path d="M600.047 80.8215C600.683 80.8215 601.198 80.3061 601.198 79.6703C601.198 79.0345 600.683 78.519 600.047 78.519C599.411 78.519 598.896 79.0345 598.896 79.6703C598.896 80.3061 599.411 80.8215 600.047 80.8215Z" fill="white"/>
<line y1="79.5" x2="600" y2="79.5" stroke="white"/>
</svg>
