<svg width="390" height="844" viewBox="0 0 390 844" fill="none" xmlns="http://www.w3.org/2000/svg">
<g clip-path="url(#clip0_508_1959)">
<rect width="390" height="844" fill="url(#paint0_linear_508_1959)"/>
<path d="M218.529 444.168L216.106 440.669C215.446 439.716 214.139 439.479 213.186 440.139L204.806 445.943C203.854 446.603 203.616 447.91 204.276 448.863L206.699 452.362C207.359 453.314 208.667 453.552 209.619 452.892L217.999 447.088C218.952 446.428 219.189 445.12 218.529 444.168Z" fill="white"/>
<path d="M212.59 435.529L176.078 382.816C175.418 381.863 174.111 381.626 173.158 382.286L164.778 388.09C163.825 388.75 163.588 390.057 164.248 391.01L200.76 443.723C201.42 444.676 202.727 444.913 203.68 444.253L212.06 438.449C213.013 437.789 213.25 436.482 212.59 435.529Z" fill="white"/>
<path d="M221.053 460.768L209.785 455.444L220.03 448.347L221.053 460.768Z" fill="white"/>
<path d="M221.047 461.822C221.683 461.822 222.198 461.306 222.198 460.67C222.198 460.034 221.683 459.519 221.047 459.519C220.411 459.519 219.896 460.034 219.896 460.67C219.896 461.306 220.411 461.822 221.047 461.822Z" fill="white"/>
<line x1="-379" y1="460.5" x2="221" y2="460.5" stroke="white"/>
</g>
<defs>
<linearGradient id="paint0_linear_508_1959" x1="195" y1="0" x2="195" y2="844" gradientUnits="userSpaceOnUse">
<stop stop-color="#226CE0"/>
<stop offset="1" stop-color="#003268"/>
</linearGradient>
<clipPath id="clip0_508_1959">
<rect width="390" height="844" fill="white"/>
</clipPath>
</defs>
</svg>
