<svg width="400" height="400" viewBox="0 0 400 400" fill="none" xmlns="http://www.w3.org/2000/svg">
<g clip-path="url(#clip0_506_1948)">
<mask id="mask0_506_1948" style="mask-type:luminance" maskUnits="userSpaceOnUse" x="0" y="0" width="400" height="400">
<path d="M400 0H0V400H400V0Z" fill="white"/>
</mask>
<g mask="url(#mask0_506_1948)">
<path d="M245.803 248.494C248.494 246.63 252.185 247.301 254.049 249.991L260.893 259.872C262.756 262.562 262.086 266.254 259.396 268.117L235.73 284.51C233.04 286.373 229.348 285.703 227.484 283.012L220.64 273.131C218.777 270.441 219.447 266.749 222.138 264.886L245.803 248.494Z" fill="#343A40"/>
<path d="M132.761 85.1122C135.451 83.2489 139.143 83.9189 141.006 86.6096L244.12 235.476C245.984 238.167 245.313 241.858 242.623 243.722L218.957 260.114C216.267 261.977 212.575 261.307 210.712 258.617L107.598 109.75C105.734 107.06 106.405 103.368 109.095 101.504L132.761 85.1122Z" fill="#343A40"/>
<path d="M268.021 306.751L236.199 291.716L265.131 271.675L268.021 306.751Z" fill="#343A40"/>
<path d="M271.254 306.476C271.254 308.272 269.798 309.728 268.003 309.728C266.207 309.728 264.751 308.272 264.751 306.476C264.751 304.681 266.207 303.225 268.003 303.225C269.798 303.225 271.254 304.681 271.254 306.476Z" fill="#343A40"/>
<path fill-rule="evenodd" clip-rule="evenodd" d="M265.948 308.333H-0.0217896V305.37H265.948V308.333Z" fill="#343A40"/>
</g>
</g>
<defs>
<clipPath id="clip0_506_1948">
<rect width="400" height="400" fill="white"/>
</clipPath>
</defs>
</svg>
